# Blender 5.0.0
# www.blender.org
mtllib greenTerrain.mtl
o 平面
v -30.000000 0.000000 30.000000
v 30.000000 0.000000 30.000000
v -30.000000 0.000000 -30.000000
v 30.000000 0.000000 -30.000000
v -30.000000 0.000000 -24.545454
v -30.000000 0.000000 -19.090908
v -30.000000 0.000000 -13.636363
v -30.000000 0.000000 -8.181818
v -30.000000 0.000000 -2.727272
v -30.000000 0.000000 2.727273
v -30.000000 0.000000 8.181818
v -30.000000 0.000000 13.636364
v -30.000000 0.000000 19.090908
v -30.000000 0.000000 24.545454
v 30.000000 0.000000 24.545454
v 30.000000 0.000000 19.090908
v 30.000000 0.000000 13.636363
v 30.000000 0.000000 8.181818
v 30.000000 0.000000 2.727272
v 30.000000 0.000000 -2.727273
v 30.000000 0.000000 -8.181818
v 30.000000 0.000000 -13.636364
v 30.000000 0.000000 -19.090908
v 30.000000 0.000000 -24.545454
v -24.545454 0.000000 30.000000
v -19.090908 0.000000 30.000000
v -13.636363 0.000000 30.000000
v -8.181818 0.000000 30.000000
v -2.727272 0.000000 30.000000
v 2.727273 0.000000 30.000000
v 8.181818 0.000000 30.000000
v 13.636364 0.000000 30.000000
v 19.090908 0.000000 30.000000
v 24.545454 0.000000 30.000000
v 24.545454 0.000000 -30.000000
v 19.090908 0.000000 -30.000000
v 13.636363 0.000000 -30.000000
v 8.181818 0.000000 -30.000000
v 2.727272 0.000000 -30.000000
v -2.727273 0.000000 -30.000000
v -8.181818 0.000000 -30.000000
v -13.636364 0.000000 -30.000000
v -19.090908 0.000000 -30.000000
v -24.545454 0.000000 -30.000000
v 24.545454 0.273168 24.545454
v 19.090908 0.713601 24.545454
v 13.636363 0.750072 24.545454
v 8.181818 0.397427 24.545454
v 2.727272 0.000000 24.545454
v -2.727273 0.000000 24.545454
v -8.181818 0.000000 24.545454
v -13.636364 0.000000 24.545454
v -19.090908 0.000000 24.545454
v -24.545454 0.000000 24.545454
v 24.545454 0.785562 19.090908
v 19.090908 3.004723 19.090908
v 13.636363 3.633982 19.090908
v 8.181818 2.821431 19.090908
v 2.727272 0.647098 19.090908
v -2.727273 0.631413 19.090908
v -8.181818 1.667184 19.090908
v -13.636364 2.996063 19.090908
v -19.090908 2.446775 19.090908
v -24.545454 0.000000 19.090908
v 24.545454 0.823293 13.636363
v 19.090908 2.851032 13.636363
v 13.636363 4.237839 13.636363
v 8.181818 3.031678 13.636363
v 2.727272 0.584016 13.636363
v -2.727273 0.727036 13.636363
v -8.181818 2.988178 13.636363
v -13.636364 4.052657 13.636363
v -19.090908 2.454588 13.636363
v -24.545454 0.000000 13.636363
v 24.545454 0.952876 8.181818
v 19.090908 2.016474 8.181818
v 13.636363 2.486022 8.181818
v 8.181818 1.559754 8.181818
v 2.727272 0.562760 8.181818
v -2.727273 0.424241 8.181818
v -8.181818 2.508601 8.181818
v -13.636364 2.995352 8.181818
v -19.090908 2.508601 8.181818
v -24.545454 0.000000 8.181818
v 24.545454 0.562785 2.727272
v 19.090908 0.569681 2.727272
v 13.636363 0.000000 2.727272
v 8.181818 0.502638 2.727272
v 2.727272 0.804565 2.727273
v -2.727273 0.516988 2.727273
v -8.181818 0.455638 2.727273
v -13.636364 0.570210 2.727273
v -19.090908 0.598543 2.727273
v -24.545454 0.000000 2.727273
v 24.545454 0.739321 -2.727273
v 19.090908 0.694758 -2.727273
v 13.636363 0.316575 -2.727273
v 8.181818 0.726803 -2.727273
v 2.727272 0.783434 -2.727273
v -2.727273 0.445221 -2.727272
v -8.181818 0.662699 -2.727272
v -13.636364 0.571250 -2.727272
v -19.090908 0.191554 -2.727272
v -24.545454 0.240106 -2.727272
v 24.545454 0.661707 -8.181818
v 19.090908 1.950357 -8.181818
v 13.636363 2.447788 -8.181818
v 8.181818 2.249025 -8.181818
v 2.727272 0.971553 -8.181818
v -2.727273 0.785405 -8.181818
v -8.181818 2.893238 -8.181818
v -13.636364 3.774616 -8.181818
v -19.090908 3.008935 -8.181818
v -24.545454 0.448271 -8.181818
v 24.545454 0.910335 -13.636364
v 19.090908 2.032407 -13.636364
v 13.636363 3.364152 -13.636364
v 8.181818 2.379454 -13.636364
v 2.727272 0.802316 -13.636364
v -2.727273 0.671984 -13.636364
v -8.181818 3.850264 -13.636364
v -13.636364 4.780869 -13.636364
v -19.090908 3.321208 -13.636364
v -24.545454 0.646254 -13.636363
v 24.545454 0.895380 -19.090908
v 19.090908 1.853981 -19.090908
v 13.636363 2.465210 -19.090908
v 8.181818 1.585401 -19.090908
v 2.727272 0.582520 -19.090908
v -2.727273 0.168857 -19.090908
v -8.181818 2.430438 -19.090908
v -13.636364 3.253164 -19.090908
v -19.090908 3.029955 -19.090908
v -24.545454 0.154855 -19.090908
v 24.545454 0.313467 -24.545454
v 19.090908 0.481433 -24.545454
v 13.636363 0.928304 -24.545454
v 8.181818 0.965982 -24.545454
v 2.727272 0.468402 -24.545454
v -2.727273 0.000000 -24.545454
v -8.181818 0.000000 -24.545454
v -13.636364 0.000000 -24.545454
v -19.090908 0.000000 -24.545454
v -24.545454 0.156243 -24.545454
vn -0.0000 1.0000 -0.0000
vn -0.0200 0.9998 -0.0069
vn -0.0284 0.9996 -0.0000
vn -0.0630 0.9980 -0.0091
vn -0.0653 0.9978 0.0055
vn -0.0288 0.9995 0.0104
vn 0.0318 0.9994 0.0116
vn 0.0914 0.9958 0.0103
vn 0.1463 0.9892 0.0005
vn 0.1288 0.9917 -0.0039
vn 0.1026 0.9947 -0.0000
vn 0.1146 0.9934 0.0016
vn 0.1204 0.9927 -0.0000
vn 0.1421 0.9899 0.0031
vn 0.1021 0.9947 -0.0104
vn 0.0352 0.9993 -0.0130
vn -0.0156 0.9990 0.0416
vn -0.0058 0.9948 0.1020
vn 0.0093 0.9961 0.0874
vn 0.0116 0.9994 0.0318
vn 0.0130 0.9993 -0.0352
vn 0.0040 0.9972 -0.0747
vn 0.0066 0.9922 -0.1248
vn -0.0069 0.9923 -0.1239
vn -0.0175 0.9988 -0.0462
vn -0.0000 0.9999 -0.0128
vn 0.0718 0.9947 0.0737
vn 0.0649 0.9843 0.1640
vn -0.0210 0.9658 0.2583
vn -0.0703 0.9890 0.1305
vn -0.0113 0.9995 0.0281
vn -0.0000 0.9997 0.0251
vn 0.0015 0.9996 0.0277
vn 0.0003 0.9995 0.0305
vn -0.0087 0.9997 0.0213
vn 0.1813 0.9801 0.0804
vn 0.1389 0.9864 0.0877
vn 0.0030 0.9939 0.1103
vn -0.2411 0.9500 0.1985
vn -0.0566 0.9974 0.0449
vn 0.0395 0.9976 0.0577
vn 0.2784 0.9085 0.3115
vn -0.0171 0.9821 0.1873
vn -0.1532 0.9808 0.1210
vn -0.0213 0.9997 0.0087
vn 0.1988 0.9800 0.0126
vn 0.2316 0.9655 -0.1194
vn 0.0002 1.0000 -0.0021
vn -0.1921 0.9787 -0.0720
vn -0.0264 0.9996 -0.0141
vn 0.0957 0.9954 -0.0070
vn 0.1689 0.9856 0.0055
vn -0.0006 1.0000 -0.0000
vn -0.1880 0.9822 0.0050
vn -0.0309 0.9995 -0.0000
vn 0.1558 0.9856 -0.0662
vn 0.1821 0.9635 -0.1965
vn -0.0061 0.9768 -0.2143
vn -0.2444 0.9239 -0.2945
vn -0.0376 0.9993 0.0041
vn 0.0055 0.9999 -0.0105
vn 0.2086 0.9550 -0.2109
vn -0.0176 0.9894 -0.1444
vn -0.1259 0.9880 -0.0895
vn -0.0281 0.9996 -0.0020
vn 0.0519 0.9986 -0.0097
vn -0.0238 0.9993 -0.0302
vn -0.0007 1.0000 -0.0047
vn 0.0549 0.9983 -0.0186
vn -0.0042 0.9999 0.0159
vn -0.0271 0.9996 0.0058
vn 0.0205 0.9998 -0.0066
vn 0.0045 0.9996 -0.0269
vn -0.0681 0.9938 -0.0882
vn -0.0232 0.9997 0.0067
vn 0.0162 0.9999 0.0056
vn -0.0095 0.9986 0.0518
vn -0.0017 0.9979 0.0647
vn 0.0278 0.9975 0.0653
vn -0.0144 0.9998 0.0169
vn -0.0096 0.9998 0.0163
vn 0.0263 0.9973 0.0681
vn -0.0215 0.9992 0.0328
vn -0.0364 0.9992 0.0185
vn -0.0196 0.9991 0.0365
vn 0.0984 0.9949 0.0200
vn 0.1276 0.9859 0.1079
vn 0.0150 0.9943 0.1055
vn -0.0854 0.9929 0.0824
vn -0.0782 0.9965 0.0307
vn 0.0150 0.9995 0.0268
vn 0.3092 0.8967 0.3167
vn -0.0199 0.9838 0.1780
vn -0.2585 0.9384 0.2291
vn -0.1161 0.9908 0.0698
vn 0.1885 0.9819 0.0167
vn 0.1322 0.9912 -0.0068
vn 0.0005 1.0000 -0.0000
vn -0.1131 0.9935 -0.0148
vn -0.0646 0.9974 -0.0333
vn 0.0297 0.9986 -0.0429
vn 0.1753 0.9843 -0.0180
vn -0.0008 1.0000 -0.0007
vn -0.1459 0.9890 -0.0250
vn -0.3055 0.9521 -0.0156
vn 0.1539 0.9847 -0.0819
vn 0.1464 0.9823 -0.1171
vn 0.0109 0.9885 -0.1507
vn -0.1873 0.9662 -0.1770
vn -0.0780 0.9960 -0.0443
vn -0.0117 0.9977 -0.0671
vn 0.3034 0.8819 -0.3609
vn -0.0036 0.9869 -0.1614
vn -0.1523 0.9754 -0.1595
vn -0.0464 0.9985 -0.0302
vn 0.0592 0.9954 -0.0752
vn 0.0488 0.9906 -0.1279
vn 0.0306 0.9829 -0.1818
vn -0.0596 0.9912 -0.1181
vn -0.0782 0.9948 -0.0649
vn -0.0134 0.9997 -0.0180
vn 0.0053 0.9997 -0.0241
vn 0.0001 0.9995 -0.0312
vn 0.0027 0.9997 -0.0260
vn -0.0000 0.9999 -0.0106
vt 1.000000 0.909091
vt 0.909091 1.000000
vt 0.909091 0.909091
vt 0.909091 0.000000
vt 1.000000 0.090909
vt 0.909091 0.090909
vt 1.000000 0.181818
vt 0.909091 0.181818
vt 1.000000 0.272727
vt 0.909091 0.272727
vt 1.000000 0.363636
vt 0.909091 0.363636
vt 0.909091 0.454546
vt 1.000000 0.545455
vt 0.909091 0.545455
vt 0.909091 0.636364
vt 1.000000 0.727273
vt 0.909091 0.727273
vt 0.909091 0.818182
vt 1.000000 0.818182
vt 0.090909 0.818182
vt 0.000000 0.909091
vt 0.000000 0.818182
vt 0.181818 0.909091
vt 0.090909 0.909091
vt 0.181818 0.818182
vt 0.272727 0.909091
vt 0.363636 0.818182
vt 0.272727 0.818182
vt 0.454545 0.818182
vt 0.363636 0.909091
vt 0.545455 0.909091
vt 0.454545 0.909091
vt 0.545455 0.818182
vt 0.636364 0.909091
vt 0.636364 0.818182
vt 0.727273 0.909091
vt 0.818182 0.818182
vt 0.727273 0.818182
vt 0.818182 0.909091
vt 0.000000 0.727273
vt 0.090909 0.727273
vt 0.181818 0.727273
vt 0.363636 0.727273
vt 0.272727 0.727273
vt 0.454545 0.727273
vt 0.545455 0.727273
vt 0.636364 0.727273
vt 0.818182 0.727273
vt 0.727273 0.727273
vt 0.090909 0.636364
vt 0.000000 0.636364
vt 0.181818 0.636364
vt 0.272727 0.636364
vt 0.363636 0.636364
vt 0.454545 0.636364
vt 0.545455 0.636364
vt 0.727273 0.636364
vt 0.636364 0.636364
vt 0.818182 0.636364
vt 0.090909 0.545455
vt 0.000000 0.545455
vt 0.181818 0.545455
vt 0.272727 0.545455
vt 0.363636 0.545455
vt 0.545455 0.545455
vt 0.454545 0.545455
vt 0.636364 0.545455
vt 0.727273 0.545455
vt 0.818182 0.545455
vt 0.090909 0.454546
vt 0.000000 0.454545
vt 0.181818 0.454546
vt 0.272727 0.454545
vt 0.363636 0.454545
vt 0.454545 0.454545
vt 0.545455 0.454546
vt 0.636364 0.454545
vt 0.818182 0.454545
vt 0.727273 0.454545
vt 0.090909 0.363636
vt 0.000000 0.363636
vt 0.181818 0.363636
vt 0.363636 0.363636
vt 0.272727 0.363636
vt 0.454545 0.363636
vt 0.545455 0.363636
vt 0.636364 0.363636
vt 0.727273 0.363636
vt 0.818182 0.363636
vt 0.090909 0.272727
vt 0.000000 0.272727
vt 0.181818 0.272727
vt 0.363636 0.272727
vt 0.272727 0.272727
vt 0.454545 0.272727
vt 0.545455 0.272727
vt 0.636364 0.272727
vt 0.818182 0.272727
vt 0.727273 0.272727
vt 0.090909 0.181818
vt 0.000000 0.181818
vt 0.181818 0.181818
vt 0.272727 0.181818
vt 0.363636 0.181818
vt 0.454545 0.181818
vt 0.636364 0.181818
vt 0.545455 0.181818
vt 0.727273 0.181818
vt 0.818182 0.181818
vt 0.090909 0.090909
vt 0.000000 0.090909
vt 0.181818 0.090909
vt 0.272727 0.090909
vt 0.363636 0.090909
vt 0.545455 0.090909
vt 0.454545 0.090909
vt 0.636364 0.090909
vt 0.727273 0.090909
vt 0.818182 0.090909
vt 0.090909 0.000000
vt 0.000000 0.000000
vt 0.181818 0.000000
vt 0.272727 0.000000
vt 0.363636 0.000000
vt 0.454545 0.000000
vt 0.636364 0.000000
vt 0.545455 0.000000
vt 0.727273 0.000000
vt 0.818182 0.000000
vt 0.090909 1.000000
vt 0.000000 1.000000
vt 0.181818 1.000000
vt 0.272727 1.000000
vt 0.363636 1.000000
vt 0.545455 1.000000
vt 0.454545 1.000000
vt 0.636364 1.000000
vt 0.727273 1.000000
vt 0.818182 1.000000
vt 1.000000 1.000000
vt 1.000000 0.000000
vt 1.000000 0.454545
vt 1.000000 0.636364
s 1
usemtl マテリアル.001
f 24/1/16 35/2/21 135/3/116
f 34/4/20 15/5/7 45/6/27
f 45/6/27 16/7/8 55/8/36
f 55/8/36 17/9/9 65/10/46
f 65/10/46 18/11/10 75/12/56
f 18/11/10 85/13/66 75/12/56
f 85/13/66 20/14/12 95/15/76
f 20/14/12 105/16/86 95/15/76
f 105/16/86 22/17/14 115/18/96
f 22/17/14 125/19/106 115/18/96
f 23/20/15 135/3/116 125/19/106
f 134/21/115 5/22/2 6/23/3
f 134/21/115 143/24/124 144/25/125
f 133/26/114 142/27/123 143/24/124
f 131/28/112 142/27/123 132/29/113
f 130/30/111 141/31/122 131/28/112
f 130/30/111 139/32/120 140/33/121
f 129/34/110 138/35/119 139/32/120
f 128/36/109 137/37/118 138/35/119
f 126/38/107 137/37/118 127/39/108
f 125/19/106 136/40/117 126/38/107
f 7/41/4 134/21/115 6/23/3
f 124/42/105 133/26/114 134/21/115
f 123/43/104 132/29/113 133/26/114
f 121/44/102 132/29/113 122/45/103
f 120/46/101 131/28/112 121/44/102
f 120/46/101 129/34/110 130/30/111
f 119/47/100 128/36/109 129/34/110
f 118/48/99 127/39/108 128/36/109
f 116/49/97 127/39/108 117/50/98
f 115/18/96 126/38/107 116/49/97
f 114/51/95 7/41/4 8/52/5
f 113/53/94 124/42/105 114/51/95
f 112/54/93 123/43/104 113/53/94
f 112/54/93 121/44/102 122/45/103
f 111/55/92 120/46/101 121/44/102
f 110/56/91 119/47/100 120/46/101
f 109/57/90 118/48/99 119/47/100
f 107/58/88 118/48/99 108/59/89
f 107/58/88 116/49/97 117/50/98
f 106/60/87 115/18/96 116/49/97
f 104/61/85 8/52/5 9/62/6
f 103/63/84 114/51/95 104/61/85
f 102/64/83 113/53/94 103/63/84
f 102/64/83 111/55/92 112/54/93
f 101/65/82 110/56/91 111/55/92
f 99/66/80 110/56/91 100/67/81
f 98/68/79 109/57/90 99/66/80
f 98/68/79 107/58/88 108/59/89
f 97/69/78 106/60/87 107/58/88
f 96/70/77 105/16/86 106/60/87
f 94/71/75 9/62/6 10/72/1
f 94/71/75 103/63/84 104/61/85
f 93/73/74 102/64/83 103/63/84
f 92/74/73 101/65/82 102/64/83
f 91/75/72 100/67/81 101/65/82
f 90/76/71 99/66/80 100/67/81
f 89/77/70 98/68/79 99/66/80
f 88/78/69 97/69/78 98/68/79
f 86/79/67 97/69/78 87/80/68
f 85/13/66 96/70/77 86/79/67
f 84/81/65 10/72/1 11/82/1
f 84/81/65 93/73/74 94/71/75
f 83/83/64 92/74/73 93/73/74
f 81/84/62 92/74/73 82/85/63
f 80/86/61 91/75/72 81/84/62
f 79/87/60 90/76/71 80/86/61
f 79/87/60 88/78/69 89/77/70
f 78/88/59 87/80/68 88/78/69
f 77/89/58 86/79/67 87/80/68
f 75/12/56 86/79/67 76/90/57
f 74/91/55 11/82/1 12/92/1
f 73/93/54 84/81/65 74/91/55
f 73/93/54 82/85/63 83/83/64
f 71/94/52 82/85/63 72/95/53
f 70/96/51 81/84/62 71/94/52
f 69/97/50 80/86/61 70/96/51
f 69/97/50 78/88/59 79/87/60
f 68/98/49 77/89/58 78/88/59
f 66/99/47 77/89/58 67/100/48
f 65/10/46 76/90/57 66/99/47
f 64/101/45 12/92/1 13/102/1
f 63/103/44 74/91/55 64/101/45
f 62/104/43 73/93/54 63/103/44
f 62/104/43 71/94/52 72/95/53
f 61/105/42 70/96/51 71/94/52
f 60/106/41 69/97/50 70/96/51
f 58/107/39 69/97/50 59/108/40
f 57/109/38 68/98/49 58/107/39
f 57/109/38 66/99/47 67/100/48
f 55/8/36 66/99/47 56/110/37
f 54/111/1 13/102/1 14/112/1
f 53/113/35 64/101/45 54/111/1
f 52/114/34 63/103/44 53/113/35
f 52/114/34 61/105/42 62/104/43
f 51/115/33 60/106/41 61/105/42
f 49/116/31 60/106/41 50/117/32
f 48/118/30 59/108/40 49/116/31
f 47/119/29 58/107/39 48/118/30
f 47/119/29 56/110/37 57/109/38
f 46/120/28 55/8/36 56/110/37
f 25/121/1 14/112/1 1/122/1
f 26/123/1 54/111/1 25/121/1
f 26/123/1 52/114/34 53/113/35
f 27/124/1 51/115/33 52/114/34
f 28/125/1 50/117/32 51/115/33
f 29/126/1 49/116/31 50/117/32
f 31/127/17 49/116/31 30/128/1
f 32/129/18 48/118/30 31/127/17
f 32/129/18 46/120/28 47/119/29
f 33/130/19 45/6/27 46/120/28
f 5/22/2 44/131/26 3/132/1
f 143/24/124 44/131/26 144/25/125
f 142/27/123 43/133/1 143/24/124
f 141/31/122 42/134/1 142/27/123
f 140/33/121 41/135/1 141/31/122
f 140/33/121 39/136/25 40/137/1
f 139/32/120 38/138/24 39/136/25
f 137/37/118 38/138/24 138/35/119
f 136/40/117 37/139/23 137/37/118
f 135/3/116 36/140/22 136/40/117
f 24/1/16 4/141/1 35/2/21
f 34/4/20 2/142/1 15/5/7
f 45/6/27 15/5/7 16/7/8
f 55/8/36 16/7/8 17/9/9
f 65/10/46 17/9/9 18/11/10
f 18/11/10 19/143/11 85/13/66
f 85/13/66 19/143/11 20/14/12
f 20/14/12 21/144/13 105/16/86
f 105/16/86 21/144/13 22/17/14
f 22/17/14 23/20/15 125/19/106
f 23/20/15 24/1/16 135/3/116
f 134/21/115 144/25/125 5/22/2
f 134/21/115 133/26/114 143/24/124
f 133/26/114 132/29/113 142/27/123
f 131/28/112 141/31/122 142/27/123
f 130/30/111 140/33/121 141/31/122
f 130/30/111 129/34/110 139/32/120
f 129/34/110 128/36/109 138/35/119
f 128/36/109 127/39/108 137/37/118
f 126/38/107 136/40/117 137/37/118
f 125/19/106 135/3/116 136/40/117
f 7/41/4 124/42/105 134/21/115
f 124/42/105 123/43/104 133/26/114
f 123/43/104 122/45/103 132/29/113
f 121/44/102 131/28/112 132/29/113
f 120/46/101 130/30/111 131/28/112
f 120/46/101 119/47/100 129/34/110
f 119/47/100 118/48/99 128/36/109
f 118/48/99 117/50/98 127/39/108
f 116/49/97 126/38/107 127/39/108
f 115/18/96 125/19/106 126/38/107
f 114/51/95 124/42/105 7/41/4
f 113/53/94 123/43/104 124/42/105
f 112/54/93 122/45/103 123/43/104
f 112/54/93 111/55/92 121/44/102
f 111/55/92 110/56/91 120/46/101
f 110/56/91 109/57/90 119/47/100
f 109/57/90 108/59/89 118/48/99
f 107/58/88 117/50/98 118/48/99
f 107/58/88 106/60/87 116/49/97
f 106/60/87 105/16/86 115/18/96
f 104/61/85 114/51/95 8/52/5
f 103/63/84 113/53/94 114/51/95
f 102/64/83 112/54/93 113/53/94
f 102/64/83 101/65/82 111/55/92
f 101/65/82 100/67/81 110/56/91
f 99/66/80 109/57/90 110/56/91
f 98/68/79 108/59/89 109/57/90
f 98/68/79 97/69/78 107/58/88
f 97/69/78 96/70/77 106/60/87
f 96/70/77 95/15/76 105/16/86
f 94/71/75 104/61/85 9/62/6
f 94/71/75 93/73/74 103/63/84
f 93/73/74 92/74/73 102/64/83
f 92/74/73 91/75/72 101/65/82
f 91/75/72 90/76/71 100/67/81
f 90/76/71 89/77/70 99/66/80
f 89/77/70 88/78/69 98/68/79
f 88/78/69 87/80/68 97/69/78
f 86/79/67 96/70/77 97/69/78
f 85/13/66 95/15/76 96/70/77
f 84/81/65 94/71/75 10/72/1
f 84/81/65 83/83/64 93/73/74
f 83/83/64 82/85/63 92/74/73
f 81/84/62 91/75/72 92/74/73
f 80/86/61 90/76/71 91/75/72
f 79/87/60 89/77/70 90/76/71
f 79/87/60 78/88/59 88/78/69
f 78/88/59 77/89/58 87/80/68
f 77/89/58 76/90/57 86/79/67
f 75/12/56 85/13/66 86/79/67
f 74/91/55 84/81/65 11/82/1
f 73/93/54 83/83/64 84/81/65
f 73/93/54 72/95/53 82/85/63
f 71/94/52 81/84/62 82/85/63
f 70/96/51 80/86/61 81/84/62
f 69/97/50 79/87/60 80/86/61
f 69/97/50 68/98/49 78/88/59
f 68/98/49 67/100/48 77/89/58
f 66/99/47 76/90/57 77/89/58
f 65/10/46 75/12/56 76/90/57
f 64/101/45 74/91/55 12/92/1
f 63/103/44 73/93/54 74/91/55
f 62/104/43 72/95/53 73/93/54
f 62/104/43 61/105/42 71/94/52
f 61/105/42 60/106/41 70/96/51
f 60/106/41 59/108/40 69/97/50
f 58/107/39 68/98/49 69/97/50
f 57/109/38 67/100/48 68/98/49
f 57/109/38 56/110/37 66/99/47
f 55/8/36 65/10/46 66/99/47
f 54/111/1 64/101/45 13/102/1
f 53/113/35 63/103/44 64/101/45
f 52/114/34 62/104/43 63/103/44
f 52/114/34 51/115/33 61/105/42
f 51/115/33 50/117/32 60/106/41
f 49/116/31 59/108/40 60/106/41
f 48/118/30 58/107/39 59/108/40
f 47/119/29 57/109/38 58/107/39
f 47/119/29 46/120/28 56/110/37
f 46/120/28 45/6/27 55/8/36
f 25/121/1 54/111/1 14/112/1
f 26/123/1 53/113/35 54/111/1
f 26/123/1 27/124/1 52/114/34
f 27/124/1 28/125/1 51/115/33
f 28/125/1 29/126/1 50/117/32
f 29/126/1 30/128/1 49/116/31
f 31/127/17 48/118/30 49/116/31
f 32/129/18 47/119/29 48/118/30
f 32/129/18 33/130/19 46/120/28
f 33/130/19 34/4/20 45/6/27
f 5/22/2 144/25/125 44/131/26
f 143/24/124 43/133/1 44/131/26
f 142/27/123 42/134/1 43/133/1
f 141/31/122 41/135/1 42/134/1
f 140/33/121 40/137/1 41/135/1
f 140/33/121 139/32/120 39/136/25
f 139/32/120 138/35/119 38/138/24
f 137/37/118 37/139/23 38/138/24
f 136/40/117 36/140/22 37/139/23
f 135/3/116 35/2/21 36/140/22
